IKResults C01
version=1
nRows=14
nColumns=24
inDegrees=yes

Units are S.I. units (second, meters, Newtons, ...)
If the header above contains a line with 'inDegrees', this indicates whether rotational values are in degrees (yes) or radians (no).

endheader
time	pelvis_tilt	pelvis_list	pelvis_rotation	pelvis_tx	pelvis_ty	pelvis_tz	hip_flexion_r	hip_adduction_r	hip_rotation_r	knee_angle_r	ankle_angle_r	subtalar_angle_r	mtp_angle_r	hip_flexion_l	hip_adduction_l	hip_rotation_l	knee_angle_l	ankle_angle_l	subtalar_angle_l	mtp_angle_l	lumbar_extension	lumbar_bending	lumbar_rotation
     10.46000000	      1.90315497	      3.84232151	    -75.57316973	     -0.25331207	      0.91096309	      0.26915181	     36.66902479	     -8.76800067	     -0.88757091	    -13.84376831	     11.91420396	    -10.66747809	      0.00000000	    -11.23539525	      0.78880139	     14.38085234	    -23.10008958	     24.16008239	      6.32347169	      0.00000000	     -8.60885868	     -2.75739393	    -15.92613188
     10.47000000	      1.52485541	      3.86861070	    -75.16835218	     -0.25456583	      0.90898543	      0.28633592	     36.38530328	     -8.37004553	     -1.68611197	    -14.76495048	     11.88432189	    -10.54475645	      0.00000000	    -11.33262085	      0.04332905	     14.34431124	    -24.41007567	     23.95662518	      6.44518439	      0.00000000	     -8.42808608	     -2.19214871	    -16.11351467
     10.48000000	      1.04245586	      4.00076399	    -74.88641194	     -0.25603812	      0.90723000	      0.30342659	     36.25372453	     -7.89968003	     -2.66782148	    -14.40907390	      9.45239416	     -9.87451980	      0.00000000	    -11.15613041	     -0.74479598	     14.08739453	    -25.86454727	     22.67324791	      7.09401949	      0.00000000	     -8.10662918	     -1.67789481	    -17.01992698
     10.49000000	      0.44557595	      4.25362950	    -74.76537144	     -0.25777344	      0.90589895	      0.32031345	     36.04712351	     -7.23455741	     -3.32467846	    -14.38545786	      6.01138613	     -9.46458129	      0.00000000	    -10.60524465	     -1.54882746	     13.62300957	    -27.59678049	     21.31218803	      7.59560209	      0.00000000	     -7.60796228	     -1.02359213	    -17.55012415
     10.50000000	     -0.35096697	      4.71043639	    -74.74131660	     -0.25963618	      0.90532420	      0.33680332	     35.95380482	     -6.37090601	     -3.84268403	    -14.41255842	      2.88469493	     -9.41350798	      0.00000000	     -9.51304950	     -2.45710806	     12.95306439	    -29.65034183	     19.42606685	      8.12178191	      0.00000000	     -6.86413359	     -0.20576189	    -17.84980562
     10.51000000	     -1.25171002	      4.90381254	    -74.81699003	     -0.26153555	      0.90546871	      0.35343334	     35.92974820	     -5.26602898	     -3.85377214	    -14.86319286	     -0.03237585	     -9.75110598	      0.00000000	     -8.51500636	     -3.53355665	     12.04507903	    -31.85615280	     17.08105799	      8.62434358	      0.00000000	     -6.47743006	      0.90739712	    -17.98612134
     10.52000000	     -2.19569132	      4.91516871	    -74.96856013	     -0.26366054	      0.90641212	      0.37022191	     36.07213878	     -3.89502023	     -3.07880280	    -16.32104534	     -1.79449047	    -11.03498064	      0.00000000	     -7.43597259	     -4.70640157	     11.16069631	    -34.41032202	     14.06372897	      9.18588058	      0.00000000	     -6.26403753	      2.07532623	    -17.97259967
     10.53000000	     -3.14746323	      4.76120437	    -75.23637944	     -0.26587712	      0.90795072	      0.38649796	     36.18693132	     -2.45846385	     -2.85134798	    -17.97603703	     -3.04796585	    -12.24488305	      0.00000000	     -6.22779582	     -5.94914440	     10.22900383	    -37.29961745	     11.07552478	      9.76306136	      0.00000000	     -6.35478329	      3.30878558	    -17.78414950
     10.54000000	     -4.00697186	      4.39912782	    -75.59809389	     -0.26807280	      0.90979296	      0.40244564	     36.09887895	     -1.07872991	     -3.03546237	    -19.75748348	     -3.67432344	    -12.91705425	      0.00000000	     -5.03475178	     -7.08625988	      9.44152931	    -40.59918658	      8.10823507	     10.20489875	      0.00000000	     -6.73578571	      4.49670271	    -17.53254818
     10.55000000	     -4.71929863	      3.96795529	    -76.02300242	     -0.27018118	      0.91168454	      0.41807908	     35.91530553	      0.18449931	     -3.26400209	    -21.57489885	     -3.81022937	    -13.27386777	      0.00000000	     -3.72484144	     -8.04715734	      8.82367026	    -44.15139283	      4.92407068	     10.53145539	      0.00000000	     -7.35696417	      5.52416153	    -17.20466126
     10.56000000	     -5.32783503	      3.60132621	    -76.48857973	     -0.27245708	      0.91357018	      0.43352506	     35.54417675	      1.44269962	     -2.95798853	    -22.93758773	     -3.76328431	    -13.71854944	      0.00000000	     -2.16906803	     -8.84281580	      8.32957719	    -47.88214234	      1.56642781	     10.45336831	      0.00000000	     -7.81661645	      6.37322032	    -16.84208359
     10.57000000	     -5.79482075	      3.28203597	    -76.93754604	     -0.27458532	      0.91551447	      0.44857823	     34.97622009	      2.50534365	     -2.89128127	    -23.91865987	     -3.38325579	    -13.98348666	      0.00000000	     -0.47652196	     -9.31653710	      8.14584744	    -51.57929606	     -1.95331036	      9.56569085	      0.00000000	     -8.31827481	      6.99805405	    -16.50466564
     10.58000000	     -6.12857923	      2.98956374	    -77.34661657	     -0.27652500	      0.91770217	      0.46322682	     34.15328684	      3.43160417	     -2.86069452	    -24.50576368	     -2.51140575	    -13.96068399	      0.00000000	      1.32794013	     -9.48250184	      8.26269912	    -55.13103111	     -5.84997874	      7.45718651	      0.00000000	     -8.62704850	      7.53805601	    -16.30770459
     10.59000000	     -6.35110675	      2.65891224	    -77.67128774	     -0.27826547	      0.92007095	      0.47758346	     33.18428696	      4.24369285	     -2.77765408	    -24.95579321	     -1.58119842	    -13.63713630	      0.00000000	      3.12355713	     -9.47730953	      8.48503820	    -58.33397022	     -9.97683128	      3.71614387	      0.00000000	     -9.36321290	      7.83143255	    -16.26699492
